<?xml version="1.0" encoding="UTF-8" standalone="no"?>
<svg xmlns:dc="http://purl.org/dc/elements/1.1/" xmlns:cc="http://creativecommons.org/ns#" xmlns:rdf="http://www.w3.org/1999/02/22-rdf-syntax-ns#" xmlns:svg="http://www.w3.org/2000/svg" xmlns="http://www.w3.org/2000/svg" xmlns:sodipodi="http://sodipodi.sourceforge.net/DTD/sodipodi-0.dtd" xmlns:inkscape="http://www.inkscape.org/namespaces/inkscape" height="48" viewBox="0 0 48 48" width="48" version="1.1" id="svg837" sodipodi:docname="iconfinder_ic_shopping_cart_48px_3669231.svg" inkscape:version="1.0.1 (c497b03c, 2020-09-10)">
  <metadata id="metadata843">
    <rdf:RDF>
      <cc:Work rdf:about="">
        <dc:format>image/svg+xml</dc:format>
        <dc:type rdf:resource="http://purl.org/dc/dcmitype/StillImage"/>
      </cc:Work>
    </rdf:RDF>
  </metadata>
  <defs id="defs841"/>
  <sodipodi:namedview pagecolor="#ffffff" bordercolor="#666666" borderopacity="1" objecttolerance="10" gridtolerance="10" guidetolerance="10" inkscape:pageopacity="0" inkscape:pageshadow="2" inkscape:window-width="1920" inkscape:window-height="954" id="namedview839" showgrid="false" inkscape:zoom="16.875" inkscape:cx="24" inkscape:cy="24" inkscape:window-x="-7" inkscape:window-y="23" inkscape:window-maximized="0" inkscape:current-layer="svg837"/>
  <path d="M14 36c-2.21 0-3.98 1.79-3.98 4s1.77 4 3.98 4 4-1.79 4-4-1.79-4-4-4zM2 4v4h4l7.19 15.17-2.7 4.9c-.31.58-.49 1.23-.49 1.93 0 2.21 1.79 4 4 4h24v-4H14.85c-.28 0-.5-.22-.5-.5 0-.09.02-.17.06-.24L16.2 26h14.9c1.5 0 2.81-.83 3.5-2.06l7.15-12.98c.16-.28.25-.61.25-.96 0-1.11-.9-2-2-2H10.43l-1.9-4H2zm32 32c-2.21 0-3.98 1.79-3.98 4s1.77 4 3.98 4 4-1.79 4-4-1.79-4-4-4z" id="path833" style="fill:#4e6a79;fill-opacity:1"/>
  <path d="M0 0h48v48H0z" fill="none" id="path835"/>
</svg>